<?xml version="1.0" standalone="no"?>
<!DOCTYPE svg PUBLIC "-//W3C//DTD SVG 20010904//EN"
 "http://www.w3.org/TR/2001/REC-SVG-20010904/DTD/svg10.dtd">
<svg version="1.0" xmlns="http://www.w3.org/2000/svg"
 width="896.000000pt" height="896.000000pt" viewBox="0 0 896.000000 896.000000"
 preserveAspectRatio="xMidYMid meet">
<metadata>
Created by potrace 1.14, written by Peter Selinger 2001-2017
</metadata>
<g transform="translate(0.000000,896.000000) scale(0.100000,-0.100000)"
fill="#000000" stroke="none">
<path d="M2174 8940 c-60 -21 -130 -59 -171 -92 -50 -41 -143 -136 -143 -146
0 -6 -4 -12 -8 -14 -29 -12 -146 -234 -168 -318 -2 -8 -13 -46 -24 -85 -11
-38 -23 -85 -26 -104 -3 -18 -8 -43 -10 -55 -2 -11 -7 -37 -10 -56 -3 -19 -7
-40 -9 -47 -24 -73 -25 -660 -1 -853 3 -19 7 -64 11 -100 3 -36 8 -76 10 -90
2 -14 6 -42 9 -64 13 -96 18 -125 27 -186 6 -36 12 -74 14 -85 3 -23 28 -157
54 -295 16 -78 18 -89 31 -145 6 -27 14 -61 16 -75 3 -14 11 -50 19 -80 8 -30
17 -70 20 -89 3 -19 8 -37 10 -41 2 -4 7 -20 10 -36 12 -68 108 -425 180 -674
9 -30 17 -59 19 -65 1 -5 11 -37 21 -70 11 -33 19 -62 20 -65 1 -3 4 -16 9
-30 4 -14 30 -97 57 -185 28 -88 54 -169 59 -180 4 -11 33 -94 64 -185 50
-151 75 -220 165 -468 l30 -84 -67 -67 c-193 -194 -351 -384 -485 -587 -79
-118 -196 -332 -225 -409 -44 -118 -55 -148 -73 -213 -24 -85 -28 -105 -35
-151 -2 -19 -8 -39 -11 -45 -10 -16 -13 -345 -3 -370 4 -12 10 -47 14 -79 3
-32 8 -62 10 -65 2 -4 7 -23 10 -42 3 -19 11 -53 17 -75 6 -22 13 -51 15 -65
3 -14 9 -34 14 -45 4 -11 25 -67 46 -125 131 -360 340 -638 688 -917 106 -85
385 -244 541 -310 60 -25 118 -47 125 -49 3 0 17 -6 33 -12 143 -60 452 -139
702 -181 135 -22 217 -33 340 -45 275 -28 757 -29 970 -2 17 2 57 7 90 11 32
3 62 8 65 10 3 2 30 6 59 10 29 3 83 13 120 22 36 8 75 17 86 18 11 2 40 8 65
15 25 7 50 13 55 15 6 1 17 4 25 8 8 3 55 17 103 32 113 33 401 147 417 165 3
3 32 19 65 36 68 34 85 45 205 122 178 115 407 318 516 457 21 27 44 55 49 62
21 26 31 40 73 101 23 34 42 67 42 72 0 6 3 10 8 10 4 0 12 10 18 23 6 12 33
67 61 122 75 149 139 325 159 438 2 17 7 33 9 37 2 3 7 29 11 56 3 27 8 58 11
69 3 11 6 94 8 185 3 162 -4 224 -51 438 -8 39 -80 234 -109 297 -16 33 -29
63 -29 66 -1 3 -32 61 -71 129 -138 245 -336 500 -553 715 l-74 73 25 38 c44
71 130 265 172 389 9 28 19 57 22 65 4 8 7 17 8 20 1 3 23 73 50 155 27 83 50
155 51 160 1 6 19 69 39 140 20 72 38 135 39 140 12 56 19 82 24 90 4 6 7 19
8 30 1 11 7 40 14 65 19 64 18 62 25 95 3 17 8 36 11 44 6 18 45 189 49 216 2
11 4 20 5 20 1 0 3 9 5 20 2 11 15 72 29 135 14 63 27 129 30 145 3 17 8 41
11 55 3 14 12 63 21 110 9 47 18 92 19 101 2 9 6 32 9 50 3 19 8 45 11 59 3
14 8 39 10 55 3 28 13 89 20 124 1 9 8 52 15 96 6 44 13 91 15 105 20 134 41
300 49 395 3 33 8 83 12 110 3 28 8 68 9 90 2 22 7 92 11 155 17 221 10 763
-11 880 -2 14 -6 41 -9 60 -7 52 -33 166 -56 245 -39 136 -126 286 -205 353
-123 106 -306 141 -445 85 -8 -3 -20 -7 -27 -9 -18 -3 -124 -69 -153 -94 -56
-48 -107 -99 -145 -145 -22 -26 -45 -53 -50 -59 -23 -24 -145 -215 -145 -225
0 -6 -5 -11 -12 -11 -6 0 -8 -3 -5 -7 4 -3 1 -13 -7 -22 -18 -20 -179 -342
-191 -381 -1 -3 -9 -21 -17 -40 -27 -58 -54 -121 -78 -185 -13 -33 -29 -73
-36 -90 -48 -116 -255 -723 -256 -752 0 -5 -6 -24 -14 -43 -29 -76 -225 -781
-241 -865 -3 -16 -9 -38 -14 -47 -5 -10 -7 -18 -5 -18 3 0 1 -11 -4 -25 -5
-14 -12 -36 -14 -48 -2 -12 -21 -89 -41 -172 -41 -171 -115 -488 -121 -525 -3
-14 -7 -33 -10 -42 -3 -10 -7 -29 -10 -43 -6 -38 -21 -109 -28 -140 -3 -12
-17 -82 -22 -108 -9 -54 -27 -65 -63 -43 -9 6 -130 33 -190 42 -18 3 -43 8
-55 10 -104 21 -417 21 -531 0 -11 -2 -51 -9 -88 -16 -39 -7 -72 -9 -77 -4 -5
5 -16 45 -25 89 -20 94 -43 208 -51 250 -5 29 -32 160 -40 200 -3 11 -9 47
-15 79 -5 33 -12 63 -14 66 -3 4 -7 22 -9 41 -7 45 -15 86 -26 129 -5 19 -21
91 -35 160 -52 253 -109 506 -175 770 -44 175 -48 192 -56 227 -12 61 -162
571 -210 718 -63 192 -162 459 -205 553 -16 34 -29 65 -29 68 0 16 -139 279
-191 362 -96 152 -224 295 -305 338 -19 10 -34 22 -34 26 0 5 -8 8 -18 8 -10
0 -22 4 -28 10 -38 38 -232 51 -320 20z m189 -258 c12 6 87 -44 130 -85 57
-56 137 -157 137 -175 0 -5 4 -12 8 -14 17 -7 148 -249 182 -338 8 -19 18 -38
22 -41 5 -3 10 -16 11 -27 1 -12 5 -22 9 -22 4 0 8 -5 8 -11 0 -6 21 -63 46
-127 37 -94 158 -449 204 -597 23 -76 104 -364 125 -445 7 -29 34 -136 50
-200 8 -36 19 -78 24 -95 9 -30 24 -110 21 -110 -1 0 4 -13 10 -29 10 -26 70
-280 74 -316 2 -8 5 -24 9 -35 3 -11 9 -36 12 -55 6 -37 14 -72 39 -180 9 -36
18 -83 22 -105 3 -22 8 -43 10 -46 2 -3 6 -21 9 -40 3 -19 10 -54 15 -79 5
-25 12 -56 14 -70 2 -14 7 -36 10 -50 3 -14 8 -36 10 -50 2 -14 7 -36 10 -50
3 -14 8 -36 10 -50 2 -14 11 -59 20 -100 8 -41 18 -88 21 -105 3 -16 18 -91
34 -165 16 -74 28 -135 27 -136 0 -1 -50 -25 -110 -54 -134 -65 -282 -162
-300 -198 -15 -29 -19 -51 -17 -95 1 -33 56 -96 90 -102 13 -2 26 -6 28 -9 10
-10 79 18 126 52 228 164 581 271 877 266 90 -1 215 -11 265 -19 90 -16 247
-59 332 -91 123 -45 368 -165 384 -188 12 -16 99 -19 127 -5 61 31 90 93 73
157 -13 48 -37 70 -126 118 -38 21 -72 41 -75 44 -3 3 -40 21 -83 40 -85 37
-81 29 -62 120 3 14 7 34 9 45 4 22 55 261 61 285 16 69 68 299 71 313 2 10 6
28 10 39 3 11 7 30 9 41 2 12 10 51 19 87 9 36 19 75 21 86 3 12 19 75 36 140
17 66 33 129 34 141 2 12 6 26 9 31 3 5 8 22 11 38 3 16 12 54 20 84 9 30 18
62 20 71 9 40 119 430 136 484 11 33 21 69 23 80 13 59 180 561 238 715 111
295 141 365 244 575 107 219 172 331 253 435 245 312 436 305 545 -20 26 -78
50 -188 61 -275 4 -27 8 -65 11 -83 2 -18 6 -94 10 -169 3 -75 7 -140 10 -144
2 -4 1 -10 -4 -13 -4 -3 -5 -30 -2 -61 3 -30 4 -57 2 -60 -2 -2 -6 -61 -8
-132 -2 -70 -6 -162 -9 -203 -9 -123 -15 -183 -19 -225 -3 -22 -7 -66 -11 -97
-15 -147 -23 -213 -30 -248 -2 -14 -7 -46 -10 -72 -6 -53 -12 -99 -25 -178
-10 -63 -19 -122 -25 -165 -3 -16 -9 -52 -15 -80 -6 -27 -12 -63 -15 -80 -2
-16 -11 -66 -20 -110 -9 -44 -17 -89 -19 -100 -2 -11 -6 -33 -9 -50 -4 -16 -9
-45 -12 -64 -3 -19 -8 -37 -10 -41 -3 -4 -7 -22 -9 -41 -3 -19 -8 -45 -11 -59
-7 -34 -85 -371 -89 -390 -2 -8 -10 -37 -16 -65 -7 -27 -23 -90 -37 -140 -13
-49 -28 -106 -33 -125 -17 -65 -92 -325 -97 -340 -3 -8 -8 -21 -10 -27 -1 -7
-5 -19 -6 -25 -2 -7 -7 -20 -10 -28 -3 -8 -20 -58 -38 -110 -46 -138 -102
-278 -151 -377 l-21 -42 -31 21 c-17 13 -36 27 -42 33 -6 5 -25 21 -43 35 -18
14 -46 35 -61 48 -15 12 -32 22 -38 22 -6 0 -12 4 -14 8 -4 9 -126 88 -186
121 -110 59 -232 -29 -201 -144 12 -44 40 -73 104 -109 56 -32 170 -111 199
-138 11 -10 23 -18 27 -18 4 0 14 -6 21 -13 7 -6 38 -32 68 -57 124 -100 317
-285 412 -393 18 -21 47 -53 63 -71 61 -65 215 -278 286 -396 179 -298 260
-570 255 -860 -1 -80 -5 -151 -9 -157 -4 -6 -9 -29 -12 -50 -12 -112 -73 -297
-145 -439 -47 -94 -86 -167 -102 -189 -242 -329 -472 -527 -813 -700 -73 -37
-176 -84 -200 -91 -5 -1 -63 -21 -129 -44 -65 -23 -126 -43 -135 -45 -9 -3
-63 -16 -121 -30 -58 -15 -120 -29 -139 -31 -19 -3 -37 -7 -41 -9 -5 -3 -28
-7 -52 -10 -23 -2 -63 -7 -88 -10 -172 -25 -272 -30 -540 -30 -146 1 -303 4
-350 8 -47 5 -105 10 -130 12 -25 2 -65 7 -90 10 -25 3 -58 8 -75 10 -39 4
-91 13 -195 31 -47 8 -98 18 -115 20 -85 15 -367 92 -455 125 -195 73 -317
129 -450 207 -86 50 -217 138 -246 166 -7 6 -29 25 -50 41 -168 133 -342 355
-449 573 -47 94 -115 277 -129 345 -3 12 -12 56 -21 97 -26 115 -26 116 -29
260 -4 144 8 233 49 370 27 91 58 173 67 180 3 3 10 19 14 35 4 17 10 32 13
35 3 3 19 32 36 65 65 129 238 381 350 510 99 113 142 159 231 249 117 118
171 168 274 255 41 36 77 67 80 70 4 5 59 49 105 83 78 59 128 105 136 125 36
96 -30 190 -133 186 -33 -1 -98 -36 -144 -78 -6 -5 -26 -21 -44 -35 -18 -14
-38 -30 -44 -35 -6 -6 -36 -30 -66 -55 -30 -25 -58 -49 -62 -55 -10 -14 -16
-4 -44 71 -53 145 -248 718 -258 759 -2 6 -6 17 -9 25 -3 8 -17 56 -32 105
-15 50 -29 99 -33 110 -3 11 -6 22 -7 25 0 3 -8 30 -18 60 -20 67 -87 299 -92
320 -2 8 -21 83 -43 165 -34 128 -64 246 -67 265 0 3 -7 28 -14 56 -7 29 -14
60 -16 70 -2 11 -4 19 -5 19 -1 0 -3 11 -5 25 -2 14 -10 54 -19 90 -8 36 -17
76 -20 90 -24 127 -55 292 -60 320 -3 19 -7 44 -10 55 -3 17 -9 54 -21 140 -2
11 -6 38 -9 60 -6 42 -13 99 -22 175 -3 25 -7 56 -9 70 -19 123 -26 598 -12
740 15 146 40 270 74 375 20 64 82 195 100 213 7 7 13 17 13 21 0 11 117 131
128 131 6 0 12 5 14 11 6 19 108 48 140 39 15 -5 29 -8 31 -8z"/>
<path d="M5926 1983 c-93 -28 -162 -90 -191 -174 -41 -116 9 -252 116 -315
154 -91 353 -40 432 111 32 61 33 164 2 224 -27 53 -57 89 -100 118 -68 46
-175 61 -259 36z m104 -263 c0 -5 -7 -7 -15 -4 -8 4 -15 8 -15 10 0 2 7 4 15
4 8 0 15 -4 15 -10z"/>
<path d="M2900 1982 c-178 -25 -291 -171 -257 -333 15 -74 88 -157 167 -192
49 -22 172 -31 203 -15 10 5 27 11 38 13 24 5 74 40 110 78 63 66 84 197 44
280 -23 48 -81 110 -125 133 -40 20 -143 41 -180 36z m43 -279 c-7 -2 -19 -2
-25 0 -7 3 -2 5 12 5 14 0 19 -2 13 -5z"/>
</g>
</svg>
